<?xml version="1.0" encoding="UTF-8"?>
<svg version="1.1" xmlns="http://www.w3.org/2000/svg" width="240" height="240">
<path d="M0 0 C1.25761956 0.6500522 2.50860406 1.31305941 3.75358582 1.98699951 C5.16682729 2.72256582 6.58038214 3.45753029 7.99421692 4.19195557 C8.71779514 4.57284836 9.44137337 4.95374115 10.1868782 5.34617615 C13.73365526 7.19646032 17.32229572 8.96059141 20.90934753 10.73114014 C22.38853325 11.46532154 23.86750812 12.19992788 25.34628296 12.93493652 C26.09749105 13.30810753 26.84869915 13.68127853 27.62267113 14.06575775 C32.54319558 16.51148242 37.46137152 18.96192699 42.37956524 21.41233444 C46.67309152 23.5512139 50.96774067 25.68777812 55.26481628 27.81951904 C59.46800802 29.90480997 63.66823473 31.99596331 67.86647987 34.09119415 C69.45499553 34.88269241 71.04456139 35.67208675 72.63521385 36.45928192 C74.85052163 37.55603038 77.06194668 38.6602604 79.27262878 39.76629639 C79.92147034 40.08532425 80.57031189 40.40435211 81.23881531 40.73304749 C86.62630732 43.44511312 91.01835036 46.31024632 94.12931824 51.5524292 C94.74033386 52.55983154 94.74033386 52.55983154 95.36369324 53.58758545 C97.14986502 56.93322259 97.50823109 59.62796292 97.52648926 63.3525238 C97.53722221 64.8559156 97.53722221 64.8559156 97.548172 66.38967896 C97.5508609 67.48841339 97.5535498 68.58714783 97.55632019 69.71917725 C97.56289139 70.87719345 97.56946259 72.03520966 97.57623291 73.22831726 C97.59598041 77.06942812 97.60763212 80.91049984 97.61759949 84.75164795 C97.62167501 86.062819 97.62575054 87.37399006 97.62994957 88.72489357 C97.64899839 94.94952151 97.66322852 101.17413763 97.67156154 107.39878911 C97.68132494 114.57269274 97.70762189 121.74628708 97.74806243 128.92008179 C97.77827947 134.47181632 97.79303579 140.02346249 97.79634255 145.57527763 C97.79868725 148.88776833 97.80956028 152.19985405 97.83280373 155.51227379 C97.85715664 159.21300204 97.85623644 162.9129246 97.84928894 166.6137085 C97.86850403 168.24662842 97.86850403 168.24662842 97.8881073 169.91253662 C97.83396734 177.83695355 96.2250271 183.09088806 91.12931824 189.1774292 C84.09282056 195.09448406 75.77360191 198.92009272 67.57853699 202.97039795 C66.33490592 203.58906548 65.09148684 204.20815929 63.8482666 204.82765198 C60.5841704 206.45308767 57.31787992 208.07405813 54.05088806 209.69366455 C48.24502737 212.57239414 42.44239468 215.45760649 36.64103699 218.34539795 C36.01857967 218.65495296 35.39612236 218.96450798 34.7548027 219.28344345 C26.18670615 223.5468842 17.66584195 227.88810312 9.23861694 232.42478943 C0.38160335 237.17030828 -7.3237143 240.37956072 -17.62068176 238.4899292 C-20.20774807 237.41094642 -22.5472646 236.31785251 -24.99494934 234.99285889 C-26.40819082 234.25729258 -27.82174567 233.52232811 -29.23558044 232.78790283 C-29.95915867 232.40701004 -30.68273689 232.02611725 -31.42824173 231.63368225 C-34.97501879 229.78339808 -38.56365924 228.01926698 -42.15071106 226.24871826 C-43.62989678 225.51453685 -45.10887165 224.77993052 -46.58764648 224.04492188 C-47.33885458 223.67175087 -48.09006268 223.29857986 -48.86403465 222.91410065 C-53.7845591 220.46837598 -58.70273504 218.01793141 -63.62092876 215.56752396 C-67.91445505 213.4286445 -72.2091042 211.29208028 -76.50617981 209.16033936 C-80.70937154 207.07504843 -84.90959825 204.98389509 -89.1078434 202.88866425 C-90.69635906 202.09716599 -92.28592491 201.30777164 -93.87657738 200.52057648 C-96.09188516 199.42382802 -98.3033102 198.319598 -100.51399231 197.21356201 C-101.16283386 196.89453415 -101.81167542 196.57550629 -102.48017883 196.24681091 C-107.86767085 193.53474528 -112.25971389 190.66961208 -115.37068176 185.4274292 C-115.98169739 184.42002686 -115.98169739 184.42002686 -116.60505676 183.39227295 C-118.39122854 180.04663581 -118.74959461 177.35189548 -118.76785278 173.62733459 C-118.77500809 172.62507339 -118.78216339 171.62281219 -118.78953552 170.59017944 C-118.79222443 169.49144501 -118.79491333 168.39271057 -118.79768372 167.26068115 C-118.80425491 166.10266495 -118.81082611 164.94464874 -118.81759644 163.75154114 C-118.83734393 159.91043028 -118.84899565 156.06935855 -118.85896301 152.22821045 C-118.86303854 150.91703939 -118.86711407 149.60586834 -118.8713131 148.25496483 C-118.89036192 142.03033689 -118.90459204 135.80572077 -118.91292506 129.58106929 C-118.92268847 122.40716566 -118.94898541 115.23357131 -118.98942596 108.0597766 C-119.019643 102.50804207 -119.03439932 96.9563959 -119.03770608 91.40458077 C-119.04005078 88.09209007 -119.0509238 84.78000435 -119.07416725 81.46758461 C-119.09852016 77.76685636 -119.09759997 74.06693379 -119.09065247 70.3661499 C-119.10986755 68.73322998 -119.10986755 68.73322998 -119.12947083 67.06732178 C-119.07533087 59.14290484 -117.46639062 53.88897034 -112.37068176 47.8024292 C-105.33418409 41.88537434 -97.01496543 38.05976567 -88.81990051 34.00946045 C-87.57626945 33.39079292 -86.33285036 32.77169911 -85.08963013 32.15220642 C-81.82553392 30.52677073 -78.55924344 28.90580027 -75.29225159 27.28619385 C-69.48639089 24.40746426 -63.6837582 21.52225191 -57.88240051 18.63446045 C-57.2599432 18.32490543 -56.63748589 18.01535042 -55.99616623 17.69641495 C-47.42806968 13.4329742 -38.90720548 9.09175528 -30.47998047 4.55506897 C-20.55751435 -0.76131104 -11.06608454 -4.61531066 0 0 Z " fill="#003366" transform="translate(130.6206817626953,1.51007080078125)"/>
<path d="M0 0 C3.58355865 1.64098538 7.06478496 3.43142775 10.53930664 5.28759766 C11.78371547 5.93413386 13.02900197 6.57898351 14.27514648 7.22216797 C16.71097122 8.48402625 19.14014755 9.75730594 21.56323242 11.04345703 C24.34839365 12.52060564 27.1414449 13.97990024 29.94165039 15.42822266 C39.4485766 20.38436761 39.4485766 20.38436761 41.85180664 22.78759766 C41.94098891 27.33589363 41.03899774 30.03447858 37.97680664 33.28759766 C34.23668177 36.7147733 30.08193638 39.31660423 25.76977539 41.96337891 C22.74373374 43.8551613 19.82185108 45.843544 16.91430664 47.91259766 C16.0390332 48.53392578 15.16375977 49.15525391 14.26196289 49.79541016 C10.74475977 52.70266071 8.30214781 55.43657416 6.85180664 59.78759766 C6.45169988 66.23582984 6.6346656 71.69045979 8.85180664 77.78759766 C9.06969322 80.50864637 8.99109359 83.04828756 8.85180664 85.78759766 C8.52180664 86.11759766 8.19180664 86.44759766 7.85180664 86.78759766 C4.42293135 86.78759766 1.86017022 86.63294634 -0.83959961 84.36962891 C-3.33277673 81.53902931 -5.10549521 78.8746362 -6.77319336 75.47509766 C-8.33951911 72.41364277 -9.02771406 71.98434061 -12.14819336 70.78759766 C-16.39918509 70.33213426 -19.91071569 70.95707573 -23.47631836 73.35009766 C-28.66414722 77.76603438 -28.66414722 77.76603438 -30.52319336 84.10009766 C-30.03757072 88.87538689 -28.76670027 89.7041229 -25.14819336 92.78759766 C-22.37550544 94.53919127 -19.50612908 96.04855146 -16.58569336 97.53759766 C-15.83094727 97.93591797 -15.07620117 98.33423828 -14.29858398 98.74462891 C-5.35260633 103.3949609 2.11860581 103.47903516 12.03930664 101.78759766 C39.12435282 97.74416595 39.12435282 97.74416595 49.03930664 103.47509766 C51.16430664 105.14697266 51.16430664 105.14697266 52.85180664 106.78759766 C53.73868164 107.59197266 54.62555664 108.39634766 55.53930664 109.22509766 C56.92476091 111.93003219 57.42004599 113.76946928 56.78149414 116.77978516 C54.59567174 121.50042682 50.40118002 125.06812651 46.85180664 128.78759766 C41.18503545 135.18328963 36.58951529 142.15527273 31.91430664 149.28759766 C23.48729006 162.08071324 14.93887009 173.66368932 -0.14819336 178.78759766 C-3.46069336 179.10009766 -3.46069336 179.10009766 -6.14819336 178.78759766 C-8.14819336 176.78759766 -8.14819336 176.78759766 -8.19506836 174.90478516 C-7.68869573 171.08033928 -7.09736534 167.38904408 -6.08569336 163.66259766 C-4.51136625 157.15537894 -4.50193455 153.46025159 -7.89819336 147.66259766 C-9.62670781 144.96790885 -11.39633227 142.47742402 -13.39819336 139.97509766 C-17.98943922 134.23604032 -17.49458138 128.00652054 -17.53881836 121.00048828 C-17.74827552 113.69857884 -19.6250786 108.37078658 -24.77319336 103.10009766 C-31.05751977 98.43351864 -38.28371431 95.68511457 -45.58569336 93.03759766 C-51.95696435 90.71006264 -58.17104182 88.11828681 -64.33569336 85.28759766 C-65.13740967 84.93213867 -65.93912598 84.57667969 -66.76513672 84.21044922 C-75.87904524 79.9363404 -79.00032081 73.65687666 -82.83569336 64.72509766 C-83.22563477 63.84015625 -83.61557617 62.95521484 -84.01733398 62.04345703 C-89.45749012 49.64734057 -89.45749012 49.64734057 -89.58569336 44.22509766 C-89.6256543 43.29568359 -89.66561523 42.36626953 -89.70678711 41.40869141 C-89.14819336 38.78759766 -89.14819336 38.78759766 -87.19116211 36.73681641 C-83.27020576 34.22518968 -79.21305499 32.18515082 -75.02319336 30.16259766 C-73.2020352 29.26848474 -71.38174043 28.37261136 -69.56225586 27.47509766 C-68.64734375 27.02392578 -67.73243164 26.57275391 -66.78979492 26.10791016 C-62.95679877 24.19212058 -59.17862492 22.17950464 -55.39819336 20.16259766 C-52.98846809 18.892689 -50.57602924 17.62810725 -48.16235352 16.36572266 C-45.891694 15.17687258 -43.62361011 13.98353384 -41.35668945 12.78759766 C-37.82598276 10.92846574 -34.28302309 9.0942783 -30.73327637 7.27178955 C-29.3158642 6.53971909 -27.90209408 5.80054795 -26.49230957 5.05389404 C-9.79864382 -3.7735607 -9.79864382 -3.7735607 0 0 Z " fill="#FDFDFD" transform="translate(128.148193359375,30.21240234375)"/>
</svg>
